# xmcd
#
# Track frame offsets:
#	150
#	20543
#	35669
#	54058
#	67880
#	84527
#	100259
#	115192
#	129073
#	146442
#	160295
#	175320
#	191220
#	204465
#
# Disc length: 2951 seconds
#
# Revision: 1
# Processed by: cddbd v1.5.2PL0 Copyright (c) Steve Scherf et al.
# Submitted via: audiograbber 1.83.01
#
DISCID=b70b850e
DTITLE=Various Artist - Jazz erlebt - CD1 - Chicago Speakeasy
DYEAR=2003
DGENRE=Jazz
TTITLE0=Paul Whiteman - Changes
TTITLE1=Benny Goodman's Boys - A Jazz Holiday
TTITLE2=McKenzie and Condon's Chicagoans - Nobody's Sweethart
TTITLE3=Benny Goodman's Trio - That's a Plenty
TTITLE4=Benny Goodman's Boys - Wolverine Blues
TTITLE5=McKenzie and Condon's Chicagoans - China Boy
TTITLE6=Frank Teschemacher's Chicagoans - Jazz Me Blues
TTITLE7=The Chicago Rythm Kings - Ther'll Be Some Changes Made
TTITLE8=Eddie Condon's Quartet - Indiana
TTITLE9=Joe Sullivan - Little Rock Getaway
TTITLE10=Tram, Bix and Lang - For No Reason At All In C
TTITLE11=Bix Beiderbecke - In A Mist
TTITLE12=Louis Armstrong and Earl Hines - Weather Bird (Rag)
TTITLE13=Louis Armstrong And His Hot Seven - Chicago Breakdown
EXTD=
EXTT0=
EXTT1=
EXTT2=
EXTT3=
EXTT4=
EXTT5=
EXTT6=
EXTT7=
EXTT8=
EXTT9=
EXTT10=
EXTT11=
EXTT12=
EXTT13=
PLAYORDER=
